<svg xmlns="http://www.w3.org/2000/svg" version="1.1" xmlns:xlink="http://www.w3.org/1999/xlink" xmlns:svgjs="http://svgjs.dev/svgjs" width="1500" height="1500" viewBox="0 0 1500 1500"><rect width="1500" height="1500" fill="#000000"></rect><g transform="matrix(0.6666666666666666,0,0,0.6666666666666666,249.39393939393938,572.0165451140573)"><svg viewBox="0 0 396 141" data-background-color="#ffffff" preserveAspectRatio="xMidYMid meet" height="534" width="1500" xmlns="http://www.w3.org/2000/svg" xmlns:xlink="http://www.w3.org/1999/xlink"><g id="tight-bounds" transform="matrix(1,0,0,1,0.2400000000000091,-0.006378840964543997)"><svg viewBox="0 0 395.52 141.01293182153216" height="141.01293182153216" width="395.52"><g><svg viewBox="0 0 685.5930889342567 244.43135999999998" height="141.01293182153216" width="395.52"><g transform="matrix(1,0,0,1,0,66.65181882277703)"><svg viewBox="0 0 395.52 111.12772235444592" height="111.12772235444592" width="395.52"><g id="textblocktransform"><svg viewBox="0 0 395.52 111.12772235444592" height="111.12772235444592" width="395.52" id="textblock"><g><svg viewBox="0 0 395.52 77.33395844432606" height="77.33395844432606" width="395.52"><g transform="matrix(1,0,0,1,0,0)"><svg width="395.52" viewBox="3.55 -36.25 187.69 36.7" height="77.33395844432606" data-palette-color="#77d4fc"><path d="M9-32.8L9-32.8 9-3.1Q9-1.7 10.2-1.15L10.2-1.15Q9.2 0.45 7.55 0.45L7.55 0.45Q4.8 0.45 4.8-3.05L4.8-3.05 4.8-32.75Q4.8-34.15 3.55-34.7L3.55-34.7Q4.45-36.25 6.15-36.25L6.15-36.25Q9-36.25 9-32.8ZM41.05 0.4L41.05 0.4Q39.9 0.4 38.82-0.35 37.75-1.1 35.65-3.25L35.65-3.25 22.95-16.3 22.95-3.1Q22.95-1.7 24.15-1.15L24.15-1.15Q23.15 0.45 21.5 0.45L21.5 0.45Q18.75 0.45 18.75-3.05L18.75-3.05 18.75-32.75Q18.75-34.15 17.5-34.7L17.5-34.7Q18.4-36.25 20.1-36.25L20.1-36.25Q22.95-36.25 22.95-32.8L22.95-32.8 22.95-19.4 36.15-33.4Q37.75-35.05 38.7-35.65 39.65-36.25 40.72-36.25 41.8-36.25 42.52-35.55 43.25-34.85 43.6-33.9L43.6-33.9Q42-33.35 39.85-31.3L39.85-31.3 26.75-18.3 40.75-4.05Q42.35-2.3 44.2-1.9L44.2-1.9Q43.15 0.4 41.2 0.4L41.2 0.4Q41.1 0.4 41.05 0.4ZM55.09-32.8L55.09-32.8 55.09-3.1Q55.09-1.7 56.3-1.15L56.3-1.15Q55.3 0.45 53.64 0.45L53.64 0.45Q50.89 0.45 50.89-3.05L50.89-3.05 50.89-32.75Q50.89-34.15 49.64-34.7L49.64-34.7Q50.55-36.25 52.24-36.25L52.24-36.25Q55.09-36.25 55.09-32.8ZM103.84-0.4L103.84-0.4Q102.69 0.4 101.47 0.4 100.24 0.4 99.59-0.38 98.94-1.15 98.74-3L98.74-3 96.84-30.15 85.49-1.8Q84.99-0.45 83.62-0.48 82.24-0.5 81.79-1.8L81.79-1.8 70.74-30.2 68.89-3.15Q68.59 0.45 66.24 0.45L66.24 0.45Q65.04 0.45 63.89-0.6L63.89-0.6Q64.59-1.2 64.79-3.25L64.79-3.25 66.99-32.55Q66.99-32.75 66.99-32.95L66.99-32.95Q66.99-34.4 66.29-35.25L66.29-35.25Q67.84-36.25 69.44-36.25L69.44-36.25Q72.64-36.25 74.09-32.15L74.09-32.15 83.84-7.35 93.99-32.1Q95.44-36.25 98.89-36.25L98.89-36.25Q100.24-36.25 101.69-35.4L101.69-35.4Q100.94-34.65 100.94-33.1L100.94-33.1Q100.94-32.9 100.94-32.7L100.94-32.7 103.09-3.3Q103.19-1.1 103.84-0.4ZM116.84-32.8L116.84-32.8 116.84-3.1Q116.84-1.7 118.04-1.15L118.04-1.15Q117.04 0.45 115.39 0.45L115.39 0.45Q112.64 0.45 112.64-3.05L112.64-3.05 112.64-32.75Q112.64-34.15 111.39-34.7L111.39-34.7Q112.29-36.25 113.99-36.25L113.99-36.25Q116.84-36.25 116.84-32.8ZM127.19-3.05L127.19-3.05 127.19-32.75Q127.19-34.2 125.94-34.7L125.94-34.7Q127.04-36.25 128.66-36.25 130.29-36.25 131.36-35.45 132.44-34.65 133.54-32.9L133.54-32.9 150.69-5.8 150.69-32.75Q150.69-34.15 149.44-34.7L149.44-34.7Q150.44-36.25 152.09-36.25L152.09-36.25Q154.89-36.25 154.89-32.8L154.89-32.8 154.89-3.1Q154.89-1.7 156.04-1.05L156.04-1.05Q155.09 0.45 153.49 0.45 151.89 0.45 150.66-0.55 149.44-1.55 147.99-3.75L147.99-3.75 131.34-29.55 131.34-3.1Q131.34-1.7 132.59-1.15L132.59-1.15Q131.59 0.45 129.99 0.45L129.99 0.45Q127.19 0.45 127.19-3.05ZM176.63-29.05L170.19-11.5 182.24-11.5 176.63-29.05ZM191.24-0.85L191.24-0.85Q190.44 0.45 188.91 0.45 187.38 0.45 186.63-0.2 185.88-0.85 185.34-2.55L185.34-2.55 183.28-8.45 169.03-8.45 166.94-3Q165.63 0.45 163.63 0.45L163.63 0.45Q161.94 0.45 161.28-1.25L161.28-1.25Q162.44-1.7 163.09-3.6L163.09-3.6 174.84-33.25Q174.28-34.6 173.59-35.25L173.59-35.25Q174.74-36.25 175.96-36.25 177.19-36.25 177.86-35.5 178.53-34.75 179.13-33.1L179.13-33.1 189.34-3.4Q190.03-1.35 191.24-0.85Z" opacity="1" transform="matrix(1,0,0,1,0,0)" fill="#ffffff" class="wordmark-text-0" data-fill-palette-color="primary" id="text-0"></path></svg></g></svg></g><g transform="matrix(1,0,0,1,163.310208,95.59065001802878)"><svg viewBox="0 0 232.209792 15.537072336417156" height="15.537072336417156" width="232.209792"><g transform="matrix(1,0,0,1,0,0)"><svg width="232.209792" viewBox="0 -35.8 535.01 35.8" height="15.537072336417156" data-palette-color="#4b91f1"><path d="M25.25-2.15L31.5-2.15 31.5 0 0 0 0-2.15 6.4-2.15Q4-3.4 2-5.25L2-5.25 5.7-9.7Q11-5.1 16.7-5.1L16.7-5.1Q19.55-5.1 21.23-6.33 22.9-7.55 22.9-9.58 22.9-11.6 21.33-12.73 19.75-13.85 15.9-14.78 12.05-15.7 10.05-16.48 8.05-17.25 6.5-18.5L6.5-18.5Q3.4-20.85 3.4-25.7 3.4-30.55 6.93-33.18 10.45-35.8 15.65-35.8L15.65-35.8Q19-35.8 22.3-34.7 25.6-33.6 28-31.6L28-31.6 24.85-27.15Q23.3-28.55 20.65-29.45 18-30.35 15.43-30.35 12.85-30.35 11.2-29.3 9.55-28.25 9.55-26.13 9.55-24 11.2-22.88 12.85-21.75 18.23-20.45 23.6-19.15 26.33-16.8 29.05-14.45 29.05-10.2L29.05-10.2Q29.05-5.05 25.25-2.15L25.25-2.15ZM59.5-2.15L69.9-2.15 69.9 0 31.5 0 31.5-2.15 41.85-2.15Q35.9-6.3 35.9-15.3L35.9-15.3 35.9-34.95 41.8-34.95 41.8-15.55Q41.8-10.75 44.2-7.95 46.6-5.15 50.7-5.15 54.8-5.15 57.2-7.95 59.6-10.75 59.6-15.55L59.6-15.55 59.6-34.95 65.5-34.95 65.5-15.3Q65.5-6.25 59.5-2.15L59.5-2.15ZM100.15-2.15L106.7-2.15 106.7 0 69.9 0 69.9-2.15 81-2.15Q77.05-4.5 74.77-8.55 72.5-12.6 72.5-17.7L72.5-17.7Q72.5-25.4 77.82-30.6 83.15-35.8 91.27-35.8 99.4-35.8 104.85-29.8L104.85-29.8 101.1-25.7Q98.6-28.1 96.37-29.05 94.15-30 91.15-30L91.15-30Q85.85-30 82.25-26.58 78.65-23.15 78.65-17.82 78.65-12.5 82.22-8.93 85.8-5.35 90.7-5.35L90.7-5.35Q93.75-5.35 95.95-6.38 98.15-7.4 100.55-9.65L100.55-9.65 104.35-5.75Q102.15-3.35 100.15-2.15L100.15-2.15ZM136.94-2.15L143.49-2.15 143.49 0 106.69 0 106.69-2.15 117.79-2.15Q113.84-4.5 111.57-8.55 109.29-12.6 109.29-17.7L109.29-17.7Q109.29-25.4 114.62-30.6 119.94-35.8 128.07-35.8 136.19-35.8 141.64-29.8L141.64-29.8 137.89-25.7Q135.39-28.1 133.17-29.05 130.94-30 127.94-30L127.94-30Q122.64-30 119.04-26.58 115.44-23.15 115.44-17.82 115.44-12.5 119.02-8.93 122.59-5.35 127.49-5.35L127.49-5.35Q130.54-5.35 132.74-6.38 134.94-7.4 137.34-9.65L137.34-9.65 141.14-5.75Q138.94-3.35 136.94-2.15L136.94-2.15ZM143.49-2.15L148.34-2.15 148.34-34.95 172.89-34.95 172.89-29.4 154.24-29.4 154.24-20.15 170.99-20.15 170.99-14.9 154.24-14.9 154.24-5.55 173.49-5.55 173.49-2.15 178.34-2.15 178.34 0 143.49 0 143.49-2.15ZM201.44-2.15L207.69-2.15 207.69 0 176.19 0 176.19-2.15 182.59-2.15Q180.19-3.4 178.19-5.25L178.19-5.25 181.89-9.7Q187.19-5.1 192.89-5.1L192.89-5.1Q195.74-5.1 197.41-6.33 199.09-7.55 199.09-9.58 199.09-11.6 197.51-12.73 195.94-13.85 192.09-14.78 188.24-15.7 186.24-16.48 184.24-17.25 182.69-18.5L182.69-18.5Q179.59-20.85 179.59-25.7 179.59-30.55 183.11-33.18 186.64-35.8 191.84-35.8L191.84-35.8Q195.19-35.8 198.49-34.7 201.79-33.6 204.19-31.6L204.19-31.6 201.04-27.15Q199.49-28.55 196.84-29.45 194.19-30.35 191.61-30.35 189.04-30.35 187.39-29.3 185.74-28.25 185.74-26.13 185.74-24 187.39-22.88 189.04-21.75 194.41-20.45 199.79-19.15 202.51-16.8 205.24-14.45 205.24-10.2L205.24-10.2Q205.24-5.05 201.44-2.15L201.44-2.15ZM232.94-2.15L239.19-2.15 239.19 0 207.69 0 207.69-2.15 214.09-2.15Q211.69-3.4 209.69-5.25L209.69-5.25 213.39-9.7Q218.69-5.1 224.39-5.1L224.39-5.1Q227.24-5.1 228.91-6.33 230.59-7.55 230.59-9.58 230.59-11.6 229.01-12.73 227.44-13.85 223.59-14.78 219.74-15.7 217.74-16.48 215.74-17.25 214.19-18.5L214.19-18.5Q211.09-20.85 211.09-25.7 211.09-30.55 214.61-33.18 218.14-35.8 223.34-35.8L223.34-35.8Q226.69-35.8 229.99-34.7 233.29-33.6 235.69-31.6L235.69-31.6 232.54-27.15Q230.99-28.55 228.34-29.45 225.69-30.35 223.11-30.35 220.54-30.35 218.89-29.3 217.24-28.25 217.24-26.13 217.24-24 218.89-22.88 220.54-21.75 225.91-20.45 231.29-19.15 234.01-16.8 236.74-14.45 236.74-10.2L236.74-10.2Q236.74-5.05 232.94-2.15L232.94-2.15ZM239.18-2.15L252.88-2.15 252.88 0 239.18 0 239.18-2.15ZM270.93-2.15L283.08-2.15 283.08 0 252.88 0 252.88-2.15 265.03-2.15 265.03-29.55 254.43-29.55 254.43-34.95 281.53-34.95 281.53-29.55 270.93-29.55 270.93-2.15ZM313.63-2.15L325.08-2.15 325.08 0 283.08 0 283.08-2.15 294.53-2.15Q290.43-4.5 288.05-8.6 285.68-12.7 285.68-17.75L285.68-17.75Q285.68-25.45 290.98-30.63 296.28-35.8 304.08-35.8 311.88-35.8 317.18-30.63 322.48-25.45 322.48-17.75L322.48-17.75Q322.48-12.75 320.1-8.6 317.73-4.45 313.63-2.15L313.63-2.15ZM312.85-26.7Q309.28-30.4 304.08-30.4 298.88-30.4 295.3-26.7 291.73-23 291.73-17.73 291.73-12.45 295.3-8.75 298.88-5.05 304.08-5.05 309.28-5.05 312.85-8.75 316.43-12.45 316.43-17.73 316.43-23 312.85-26.7ZM355.53-2.15L362.93-2.15 362.93 0 325.08 0 325.08-2.15 337.18-2.15Q332.83-4.35 330.25-8.6 327.68-12.85 327.68-18.2L327.68-18.2Q327.68-25.85 332.98-30.83 338.28-35.8 345.85-35.8 353.43-35.8 358.43-31.4L358.43-31.4 355.28-26.9Q353.23-28.65 351.15-29.33 349.08-30 346.33-30L346.33-30Q340.98-30 337.4-26.8 333.83-23.6 333.83-18.05 333.83-12.5 337.33-9.13 340.83-5.75 345.8-5.75 350.78-5.75 354.13-7.9L354.13-7.9 354.13-17.5 360.03-17.5 360.03-5.55Q358.18-3.5 355.53-2.15L355.53-2.15ZM362.92-2.15L367.77-2.15 367.77-34.95 392.32-34.95 392.32-29.4 373.67-29.4 373.67-20.15 390.42-20.15 390.42-14.9 373.67-14.9 373.67-5.55 392.92-5.55 392.92-2.15 397.77-2.15 397.77 0 362.92 0 362.92-2.15ZM413.67-2.15L425.82-2.15 425.82 0 395.62 0 395.62-2.15 407.77-2.15 407.77-29.55 397.17-29.55 397.17-34.95 424.27-34.95 424.27-29.55 413.67-29.55 413.67-2.15ZM464.67 0L464.67-2.15 459.82-2.15 459.82-34.95 453.92-34.95 453.92-19.8 436.57-19.8 436.57-34.95 430.67-34.95 430.67 0 436.57 0 436.57-14.3 453.92-14.3 453.92 0 464.67 0ZM425.82-2.15L430.67-2.15 430.67 0 425.82 0 425.82-2.15ZM464.67-2.15L469.52-2.15 469.52-34.95 494.07-34.95 494.07-29.4 475.42-29.4 475.42-20.15 492.17-20.15 492.17-14.9 475.42-14.9 475.42-5.55 494.67-5.55 494.67-2.15 499.52-2.15 499.52 0 464.67 0 464.67-2.15ZM530.16-2.15L535.01-2.15 535.01 0 524.21 0 515.86-11.75 508.11-11.75 508.11 0 497.36 0 497.36-2.15 502.21-2.15 502.21-34.95 515.21-34.95Q523.21-34.95 526.66-32.25 530.11-29.55 530.11-23.6L530.11-23.6Q530.11-14.95 522.56-12.7L522.56-12.7 530.16-2.15ZM515.46-17.1Q520.46-17.1 522.26-18.65 524.06-20.2 524.06-23.63 524.06-27.05 522.21-28.33 520.36-29.6 515.61-29.6L515.61-29.6 508.11-29.6 508.11-17.1 515.46-17.1Z" opacity="1" transform="matrix(1,0,0,1,0,0)" fill="#ffffff" class="slogan-text-1" data-fill-palette-color="secondary" id="text-1"></path></svg></g></svg></g></svg></g></svg></g><g transform="matrix(1,0,0,1,441.16172893425676,0)"><svg viewBox="0 0 244.43135999999998 244.43135999999998" height="244.43135999999998" width="244.43135999999998"><g><svg viewBox="0 0 244.43135999999998 244.43135999999998" height="244.43135999999998" width="244.43135999999998"><g transform="matrix(1,0,0,1,64.85220600844602,64.60265593644992)"><svg viewBox="0 0 114.72694798310793 115.22604812710014" height="115.22604812710014" width="114.72694798310793"><g><svg xmlns="http://www.w3.org/2000/svg" xmlns:xlink="http://www.w3.org/1999/xlink" version="1.1" x="0" y="0" viewBox="2.3000000000000043 2.1854135008502102 95.29999999999998 95.71458649914979" enable-background="new 0 0 100 100" xml:space="preserve" height="115.22604812710014" width="114.72694798310793" class="icon-cg-0" data-fill-palette-color="accent" id="cg-0"><path d="M58.8 20.7c0 0 3 28-18 28.3v0c0 0-0.1 0-0.1 0 0 0-0.1 0-0.1 0v0c-21-0.2-18-28.3-18-28.3C23.6 2 39.2 2.1 40.8 2.2 42.3 2.1 58 2 58.8 20.7zM47 76.7l-4.3-12.1c7.5-10.4-0.5-11-2-11v0c0 0 0 0 0 0 0 0 0 0 0 0 0 0 0 0 0 0 0 0 0 0 0 0 0 0 0 0 0 0 0 0 0 0 0 0v0c-1.4 0-9.4 0.5-2 11l-4.3 12.1-7.3-23c0 0-9.2 4.4-17.3 9.6-6.2 3.9-7.3 8.1-7.5 14.1l0 3.8v16.7h38.4 0.1 0 0.1 23.5c-6-4.3-9.9-11.4-9.9-19.4 0-8 4-15.1 10-19.4-5.5-3.1-10.1-5.3-10.1-5.3L47 76.7zM84.9 83.3L84.9 83.3C84.8 83.2 84.8 83.2 84.9 83.3l-4.2-5c-0.2-0.2-0.3-0.5-0.3-0.7l-0.6-9.2h0c-0.1-0.9-0.8-1.5-1.7-1.5-0.9 0-1.6 0.6-1.7 1.5h0l0 0c0 0 0 0.1 0 0.1l-0.7 10.1c0 0.1 0 0.1 0 0.2l0 0h0c0 0 0 0 0 0 0 0 0 0 0 0.1 0 0.6 0.2 1.2 0.7 1.7 0.1 0.1 0.2 0.2 0.3 0.3l5.7 4.8 0 0c0.7 0.6 1.6 0.5 2.3-0.1C85.3 84.9 85.4 83.9 84.9 83.3L84.9 83.3zM97.6 78.4c0 10.7-8.7 19.4-19.4 19.4s-19.4-8.7-19.4-19.4 8.7-19.4 19.4-19.4S97.6 67.8 97.6 78.4zM92.6 78.4c0-7.9-6.4-14.4-14.4-14.4-7.9 0-14.4 6.4-14.4 14.4s6.4 14.4 14.4 14.4C86.2 92.8 92.6 86.4 92.6 78.4z" fill="#ffffff" data-fill-palette-color="accent"></path></svg></g></svg></g><g id="text-0"><path d="M7.293 86.535v0l24.813 7.129c0.782 0.225 1.421 0.047 1.918-0.532v0c0.729 0.815 0.962 1.68 0.699 2.595v0c-0.44 1.532-1.632 2.018-3.577 1.459v0l-24.813-7.129c-0.782-0.225-1.425-0.031-1.932 0.58v0c-0.72-0.75-0.944-1.599-0.672-2.546v0c0.456-1.589 1.644-2.107 3.564-1.556z" fill="#ffffff" data-fill-palette-color="accent"></path><path d="M57.001 59.133v0c-0.406 0.531-0.97 0.91-1.695 1.14-0.719 0.233-1.944 0.453-3.676 0.66v0l-15.718 1.881 9.117 6.968c0.646 0.494 1.306 0.561 1.98 0.203v0c0.382 1.024 0.284 1.915-0.294 2.671v0c-0.968 1.266-2.255 1.285-3.863 0.056v0l-20.512-15.678c-0.646-0.494-1.316-0.548-2.01-0.163v0c-0.397-0.961-0.297-1.833 0.302-2.616v0c1.004-1.313 2.299-1.364 3.885-0.151v0l9.259 7.077-2.7-16.507c-0.2-1.318-0.269-2.299-0.209-2.944 0.055-0.649 0.273-1.223 0.654-1.722 0.377-0.494 0.853-0.784 1.427-0.87 0.583-0.087 1.154-0.046 1.715 0.125v0c-0.314 0.933-0.376 2.255-0.185 3.966v0l2.061 15.906 17.232-2.146c1.366-0.121 2.466-0.537 3.301-1.247v0c0.692 1.294 0.694 2.391 0.007 3.289v0c-0.036 0.047-0.062 0.081-0.078 0.102z" fill="#ffffff" data-fill-palette-color="accent"></path><path d="M62.677 18.807v0l13.717 21.872c0.432 0.689 1.027 0.984 1.783 0.884v0c-0.001 1.093-0.405 1.893-1.211 2.399v0c-1.35 0.847-2.563 0.413-3.638-1.302v0l-13.717-21.871c-0.432-0.689-1.041-0.975-1.826-0.857v0c-0.035-1.039 0.364-1.821 1.2-2.345v0c1.4-0.878 2.631-0.472 3.692 1.22z" fill="#ffffff" data-fill-palette-color="accent"></path><path d="M131.847 30.356v0c-0.601 0.547-1.252 0.867-1.953 0.96-0.708 0.094-1.278-0.057-1.712-0.452-0.433-0.396-0.776-1.117-1.028-2.165v0l-4.757-23.17-6.52 25.723c-0.185 0.818-0.675 1.271-1.471 1.356-0.788 0.092-1.363-0.219-1.725-0.931v0l-12.775-23.203 1.511 23.522c0.098 2.088-0.528 3.222-1.878 3.402v0c-0.688 0.092-1.403-0.12-2.146-0.635v0c0.361-0.395 0.519-1.19 0.473-2.384v0l-1.464-25.5c-0.015-0.111-0.03-0.226-0.046-0.344v0c-0.111-0.832-0.398-1.464-0.863-1.896v0c0.815-0.695 1.681-1.104 2.599-1.227v0c1.835-0.244 3.326 0.755 4.471 2.997v0l11.252 20.254 5.901-22.488c0.521-2.498 1.772-3.878 3.751-4.142v0c0.773-0.103 1.609 0.033 2.505 0.407v0c-0.368 0.489-0.493 1.18-0.374 2.071v0c0.016 0.118 0.031 0.233 0.046 0.344v0l5.221 25.09c0.227 1.257 0.555 2.061 0.982 2.411z" fill="#ffffff" data-fill-palette-color="accent"></path><path d="M164.333 9.639v0l-7.624 24.666c-0.24 0.777-0.075 1.42 0.495 1.928v0c-0.829 0.713-1.699 0.928-2.609 0.647v0c-1.522-0.471-1.985-1.672-1.387-3.605v0l7.624-24.666c0.24-0.777 0.06-1.425-0.542-1.943v0c0.765-0.705 1.618-0.912 2.559-0.621v0c1.579 0.488 2.074 1.686 1.484 3.594z" fill="#ffffff" data-fill-palette-color="accent"></path><path d="M177.707 45.765v0l16.369-19.965c0.532-0.649 0.612-1.315 0.239-1.997v0c1.061-0.293 1.957-0.14 2.688 0.46 0.726 0.595 1.183 1.269 1.37 2.021 0.187 0.752 0.206 1.725 0.056 2.919v0l-3.407 27.668 14.854-18.117c0.516-0.629 0.593-1.297 0.231-2.003v0c1.02-0.326 1.901-0.186 2.643 0.422v0c1.253 1.027 1.246 2.313-0.02 3.857v0l-16.369 19.965c-0.516 0.629-0.635 1.301-0.358 2.016v0c-0.979 0.318-1.826 0.183-2.541-0.404-0.716-0.587-1.165-1.327-1.348-2.221-0.183-0.903-0.195-2.114-0.035-3.633v0l3.028-26.516-14.577 17.779c-0.516 0.629-0.593 1.297-0.232 2.003v0c-1.037 0.347-1.913 0.227-2.629-0.36v0c-1.258-1.031-1.245-2.329 0.038-3.894z" fill="#ffffff" data-fill-palette-color="accent"></path><path d="M233.302 81.028l-16.242 0.648 4.01 9.687zM215.5 102.128v0c-0.867-0.142-1.469-0.619-1.805-1.432-0.339-0.819-0.418-1.502-0.237-2.049 0.175-0.545 0.657-1.152 1.447-1.822v0l4.067-3.606-4.738-11.446-5.079 0.127c-2.133 0.067-3.423-0.437-3.867-1.512v0c-0.377-0.91-0.182-1.728 0.584-2.453v0c0.494 0.518 1.323 0.741 2.487 0.667v0l27.716-0.418c0.6-0.592 0.995-1.149 1.186-1.672v0c0.793 0.394 1.326 0.922 1.599 1.582 0.271 0.654 0.279 1.244 0.025 1.771-0.248 0.525-0.748 1.133-1.499 1.823v0l-20.463 18.069c-0.945 0.828-1.42 1.618-1.423 2.371z" fill="#ffffff" data-fill-palette-color="accent"></path><path d="M39.896 156.512v0l-24.51 7.033c-0.769 0.221-1.208 0.704-1.318 1.451v0c-1.042-0.299-1.693-0.9-1.951-1.802v0c-0.434-1.513 0.312-2.545 2.237-3.098v0l24.511-7.034c0.769-0.221 1.207-0.721 1.313-1.502v0c0.994 0.251 1.625 0.844 1.893 1.779v0c0.45 1.57-0.274 2.627-2.175 3.173z" fill="#ffffff" data-fill-palette-color="accent"></path><path d="M38.335 207.532v0c-0.402-0.525-0.619-1.162-0.651-1.912-0.032-0.75 0.074-1.976 0.32-3.679v0l2.277-15.468-9.003 6.889c-0.635 0.486-0.868 1.097-0.697 1.832v0c-1.08 0.102-1.905-0.22-2.475-0.966v0c-0.956-1.25-0.639-2.483 0.952-3.701v0l20.252-15.496c0.635-0.486 0.86-1.112 0.674-1.877v0c1.017-0.129 1.821 0.193 2.412 0.965v0c0.992 1.297 0.704 2.546-0.866 3.748v0l-9.138 6.991 16.436 1.699c1.305 0.15 2.261 0.339 2.868 0.565 0.603 0.222 1.091 0.577 1.464 1.065 0.374 0.488 0.527 1.021 0.46 1.597-0.066 0.567-0.252 1.096-0.558 1.588v0c-0.811-0.537-2.054-0.938-3.731-1.204v0l-15.704-2.146-2.408 16.979c-0.244 1.335-0.134 2.496 0.329 3.482v0c-1.411 0.322-2.456 0.039-3.134-0.849v0c-0.036-0.047-0.062-0.081-0.079-0.102z" fill="#ffffff" data-fill-palette-color="accent"></path><path d="M80.776 204.972v0l-13.516 21.623c-0.424 0.678-0.427 1.332-0.009 1.959v0c-0.975 0.474-1.861 0.463-2.657-0.035v0c-1.334-0.834-1.471-2.101-0.408-3.799v0l13.516-21.623c0.424-0.678 0.415-1.343-0.028-1.995v0c0.907-0.478 1.773-0.459 2.597 0.056v0c1.385 0.866 1.553 2.137 0.505 3.814z" fill="#ffffff" data-fill-palette-color="accent"></path><path d="M128.871 243.982v0c-0.716 0.373-1.421 0.513-2.116 0.422-0.695-0.091-1.197-0.381-1.507-0.868-0.315-0.495-0.459-1.274-0.433-2.338v0l1.426-23.321-12.839 22.861c-0.383 0.73-0.963 1.037-1.742 0.921-0.778-0.116-1.247-0.561-1.405-1.335v0l-6.233-25.409-4.6 22.814c-0.439 2.023-1.325 2.947-2.655 2.772v0c-0.682-0.09-1.311-0.476-1.889-1.159v0c0.445-0.288 0.799-1.005 1.063-2.151v0l5.159-24.701c0.015-0.111 0.029-0.223 0.044-0.334v0c0.109-0.826-0.006-1.505-0.342-2.036v0c0.953-0.455 1.886-0.622 2.797-0.502v0c1.816 0.239 2.981 1.576 3.494 4.01v0l5.523 22.205 11.415-19.937c1.129-2.246 2.674-3.24 4.634-2.982v0c0.767 0.101 1.532 0.448 2.294 1.042v0c-0.481 0.364-0.78 0.988-0.897 1.873v0c-0.015 0.111-0.029 0.223-0.044 0.334v0l-1.462 25.267c-0.112 1.259-0.007 2.11 0.315 2.552z" fill="#ffffff" data-fill-palette-color="accent"></path><path d="M154.389 210.402v0l7.572 24.349c0.238 0.764 0.731 1.192 1.48 1.285v0c-0.276 1.048-0.863 1.712-1.76 1.991v0c-1.503 0.467-2.552-0.256-3.146-2.169v0l-7.572-24.349c-0.238-0.764-0.748-1.191-1.53-1.28v0c0.229-0.999 0.808-1.643 1.736-1.932v0c1.56-0.485 2.633 0.216 3.22 2.105z" fill="#ffffff" data-fill-palette-color="accent"></path><path d="M189.082 220.042v0l-16.215-19.681c-0.53-0.643-1.161-0.847-1.892-0.612v0c-0.079-1.083 0.242-1.921 0.961-2.515 0.72-0.593 1.462-0.909 2.227-0.947 0.765-0.039 1.709 0.13 2.832 0.506v0l26.164 8.593-14.714-17.859c-0.509-0.618-1.14-0.822-1.892-0.613v0c-0.125-1.045 0.178-1.869 0.907-2.47v0c1.235-1.017 2.481-0.763 3.739 0.763v0l16.214 19.681c0.509 0.618 1.136 0.859 1.882 0.724v0c0.128 1.008-0.163 1.805-0.872 2.389-0.704 0.58-1.51 0.871-2.416 0.873-0.903 0.007-2.077-0.212-3.523-0.657v0l-25.114-8.006 14.442 17.53c0.509 0.618 1.137 0.819 1.887 0.605v0c0.14 1.075-0.141 1.903-0.846 2.483v0c-1.24 1.022-2.497 0.759-3.771-0.787z" fill="#ffffff" data-fill-palette-color="accent"></path><path d="M207.984 160.854l11.822 10.856 3.94-9.565zM235.145 158.485v0c0.517 0.706 0.609 1.463 0.276 2.27-0.332 0.807-0.752 1.339-1.257 1.595-0.512 0.254-1.278 0.342-2.298 0.266v0l-5.346-0.304-4.662 11.317 3.632 3.448c1.546 1.438 2.101 2.686 1.665 3.743v0c-0.373 0.905-1.079 1.343-2.119 1.316v0c0.013-0.71-0.414-1.443-1.281-2.202v0l-19.69-19.02c-0.834-0.007-1.499 0.105-1.994 0.337v0c-0.28-0.831-0.287-1.57-0.02-2.218 0.267-0.648 0.672-1.068 1.216-1.259 0.543-0.191 1.318-0.265 2.323-0.223v0l26.914 1.616c1.236 0.073 2.116-0.154 2.641-0.682z" fill="#ffffff" data-fill-palette-color="accent"></path><path d="M6.193 126.256c0-6.648 5.389-12.037 12.037-12.037 6.648 0 12.037 5.389 12.037 12.037 0 6.648-5.389 12.037-12.037 12.037-6.648 0-12.037-5.389-12.037-12.037z" fill="#ffffff" data-fill-palette-color="accent"></path><path d="M216.74 126.256c0-6.648 5.389-12.037 12.037-12.037 6.648 0 12.037 5.389 12.037 12.037 0 6.648-5.389 12.037-12.037 12.037-6.648 0-12.037-5.389-12.037-12.037z" fill="#ffffff" data-fill-palette-color="accent"></path></g><g id="text-1"></g></svg></g></svg></g></svg></g><defs></defs></svg><rect width="395.52" height="141.01293182153216" fill="none" stroke="none" visibility="hidden"></rect></g></svg></g></svg>